# xmcd
#
# Track frame offsets:
#	150
#	23857
#	57322
#	76919
#	97685
#	115772
#	133217
#	168541
#	177095
#	197202
#	203707
#	216935
#	244422
#	266747
#	289534
#	307014
#
# Disc length: 4375 seconds
# Revision: 0
# Processed by: cddbd v1.5.2PL0 Copyright (c) Steve Scherf et al.
# Submitted via: dBpowerAMP V12.0
#
DISCID=e8111510
DTITLE=Anna Maria Jokl - Die Perlmutterfarbe CD3
DYEAR=1900
DGENRE=
TTITLE0=Die es mit den Bs halten
TTITLE1=Ein überraschendes Geheimnis
TTITLE2=Warten
TTITLE3=Das rettende Klo
TTITLE4=Eine gefährliche Minute
TTITLE5=Eine Niederlage
TTITLE6=Die Kremschnitte
TTITLE7=Auch ein Zuhause
TTITLE8=Neue Verbindung
TTITLE9=Die Vernunft siegt
TTITLE10=Der Gruber weiß es schon
TTITLE11=Unliebsame Überraschung
TTITLE12=Unliebsame Überraschung
TTITLE13=Unliebsame Überraschung
TTITLE14=Ein schwarzer Tag für Gruber
TTITLE15=Der Durchbruch
EXTD=
EXTT0=
EXTT1=
EXTT2=
EXTT3=
EXTT4=
EXTT5=
EXTT6=
EXTT7=
EXTT8=
EXTT9=
EXTT10=
EXTT11=
EXTT12=
EXTT13=
EXTT14=
EXTT15=
PLAYORDER=
